<?xml version="1.0" encoding="UTF-8"?>
<svg version="1.1" xmlns="http://www.w3.org/2000/svg" width="300" height="76">
<path d="M0 0 C84.48 0 168.96 0 256 0 C256 12.54 256 25.08 256 38 C171.52 38 87.04 38 0 38 C0 25.46 0 12.92 0 0 Z " fill="#FDFAFA" transform="translate(42,27)"/>
<path d="M0 0 C1.14189789 -0.00058411 2.28379578 -0.00116821 3.46029663 -0.00177002 C7.23189772 0.00101505 11.00270701 0.03212884 14.77416992 0.06347656 C17.39018828 0.0709374 20.00621222 0.07663107 22.62223816 0.08062744 C28.80229418 0.09304759 34.98206634 0.12585583 41.1619975 0.1660254 C48.19942427 0.21077331 55.23686477 0.23273768 62.27439845 0.25280714 C76.74714562 0.29458962 91.21958572 0.36792977 105.69213867 0.45410156 C105.69213867 12.99410156 105.69213867 25.53410156 105.69213867 38.45410156 C93.14853646 38.49929496 80.60498838 38.53598472 68.06132317 38.55772591 C62.23673349 38.56816083 56.41220243 38.58231484 50.58764648 38.60498047 C44.96611073 38.62671904 39.34463134 38.63867239 33.72305679 38.64385605 C31.57887001 38.64754996 29.4346863 38.65476322 27.29052353 38.66556168 C24.28614395 38.68008992 21.28199698 38.68207893 18.27758789 38.68115234 C17.39213791 38.6883429 16.50668793 38.69553345 15.59440613 38.70294189 C10.01739975 38.68434336 4.85431444 38.61627733 0.69213867 34.45410156 C0.37329102 32.57470703 0.37329102 32.57470703 0.27807617 30.32128906 C0.2394043 29.515625 0.20073242 28.70996094 0.16088867 27.87988281 C0.12995117 27.038125 0.09901367 26.19636719 0.06713867 25.32910156 C0.0284668 24.47960937 -0.01020508 23.63011719 -0.05004883 22.75488281 C-0.14442627 20.65498473 -0.22723719 18.55457266 -0.30786133 16.45410156 C-1.29786133 16.12410156 -2.28786133 15.79410156 -3.30786133 15.45410156 C-3.30786133 14.46410156 -3.30786133 13.47410156 -3.30786133 12.45410156 C-3.96786133 12.12410156 -4.62786133 11.79410156 -5.30786133 11.45410156 C-6.11438641 14.33577837 -6.48301138 17.01441703 -6.62426758 20.00097656 C-6.66616211 20.8453125 -6.70805664 21.68964844 -6.7512207 22.55957031 C-6.79053711 23.43226562 -6.82985352 24.30496094 -6.87036133 25.20410156 C-6.91354492 26.09226562 -6.95672852 26.98042969 -7.0012207 27.89550781 C-7.10699748 30.08156119 -7.20908679 32.26772245 -7.30786133 34.45410156 C-6.31786133 34.45410156 -5.32786133 34.45410156 -4.30786133 34.45410156 C-4.30786133 35.11410156 -4.30786133 35.77410156 -4.30786133 36.45410156 C-8.26786133 36.45410156 -12.22786133 36.45410156 -16.30786133 36.45410156 C-16.30786133 35.79410156 -16.30786133 35.13410156 -16.30786133 34.45410156 C-15.31786133 34.45410156 -14.32786133 34.45410156 -13.30786133 34.45410156 C-13.30786133 24.88410156 -13.30786133 15.31410156 -13.30786133 5.45410156 C-14.29786133 5.12410156 -15.28786133 4.79410156 -16.30786133 4.45410156 C-11.57445043 -0.75010092 -6.54693547 -0.08749712 0 0 Z " fill="#FAFAFA" transform="translate(192.307861328125,26.5458984375)"/>
<path d="M0 0 C16.17 0 32.34 0 49 0 C49.495 0.99 49.495 0.99 50 2 C48.35 2.66 46.7 3.32 45 4 C45.66 4.33 46.32 4.66 47 5 C47 14.57 47 24.14 47 34 C46.01 34 45.02 34 44 34 C44 34.66 44 35.32 44 36 C47.96 36 51.92 36 56 36 C56 35.34 56 34.68 56 34 C55.01 34 54.02 34 53 34 C52.9417747 30.91674642 52.90632866 27.83363495 52.875 24.75 C52.85824219 23.87730469 52.84148437 23.00460938 52.82421875 22.10546875 C52.81455078 20.83896484 52.81455078 20.83896484 52.8046875 19.546875 C52.78897705 18.38430176 52.78897705 18.38430176 52.77294922 17.19824219 C53.02673444 14.74116461 53.77555848 13.12688458 55 11 C56.32 11.33 57.64 11.66 59 12 C58.34 12 57.68 12 57 12 C57 12.99 57 13.98 57 15 C58.32 15.33 59.64 15.66 61 16 C61.04898438 17.27617188 61.09796875 18.55234375 61.1484375 19.8671875 C61.22346191 21.53648072 61.29900988 23.20575046 61.375 24.875 C61.4059375 25.71675781 61.436875 26.55851562 61.46875 27.42578125 C61.50742188 28.23144531 61.54609375 29.03710938 61.5859375 29.8671875 C61.6173584 30.61081543 61.6487793 31.35444336 61.68115234 32.12060547 C61.85419551 34.24010974 61.85419551 34.24010974 64 36 C66.57061311 36.64767793 66.57061311 36.64767793 69 37 C69 37.33 69 37.66 69 38 C59.53381062 38.04630689 50.06766012 38.08186079 40.60138226 38.10362434 C36.20597526 38.11406888 31.81064565 38.12824027 27.4152832 38.15087891 C23.17482045 38.17258344 18.93443223 38.18456358 14.69391823 38.18975449 C13.07476439 38.19345454 11.45561471 38.20067969 9.83649254 38.21146011 C7.5714875 38.22594339 5.30679182 38.22797929 3.04174805 38.22705078 C1.75157272 38.231492 0.4613974 38.23593323 -0.86787415 38.24050903 C-4 38 -4 38 -7 36 C-2.25 34.875 -2.25 34.875 0 36 C3.81021578 36.43297907 5.81284429 36.088281 9.3125 34.4375 C12.28325103 32.17386467 12.28325103 32.17386467 13 28.5 C13 24.92330221 12.96887743 23.85487228 11 21 C8.84760905 19.49899052 6.76817109 18.16898915 4.5 16.875 C-1.80273438 13.19726562 -1.80273438 13.19726562 -4 11 C-3.67028521 7.70285207 -3.3773161 6.3773161 -1 4 C2.53288854 4.15360385 4.51373558 4.6416999 7.375 6.75 C9.29619066 9.41011015 9.35659503 10.79064469 9 14 C9.99 14 10.98 14 12 14 C12 10.04 12 6.08 12 2 C11.01 2 10.02 2 9 2 C9 2.66 9 3.32 9 4 C4.545 3.01 4.545 3.01 0 2 C0 1.34 0 0.68 0 0 Z " fill="#F9F9FA" transform="translate(132,27)"/>
<path d="M0 0 C12.54 0 25.08 0 38 0 C38 11.55 38 23.1 38 35 C25.46 35 12.92 35 0 35 C0 23.45 0 11.9 0 0 Z " fill="#E5E3ED" transform="translate(0,28)"/>
<path d="M0 0 C3.3956697 -0.08745946 6.79104773 -0.14054444 10.1875 -0.1875 C11.14720703 -0.21263672 12.10691406 -0.23777344 13.09570312 -0.26367188 C21.94572693 -0.35554063 21.94572693 -0.35554063 26 3 C28 5 28 5 28.3125 8.3125 C27.98867205 12.13366982 27.22414284 13.94180359 25 17 C25.639375 17.28875 26.27875 17.5775 26.9375 17.875 C29 19 29 19 30 21 C30.375 23.8125 30.375 23.8125 30 27 C26.94321288 30.93015486 24.84476046 32.31907826 20 33 C18.38038502 33.07649781 16.75810555 33.10811681 15.13671875 33.09765625 C13.80737305 33.09282227 13.80737305 33.09282227 12.45117188 33.08789062 C11.53916016 33.07951172 10.62714844 33.07113281 9.6875 33.0625 C8.75615234 33.05798828 7.82480469 33.05347656 6.86523438 33.04882812 C4.57675627 33.03709234 2.28841192 33.02067363 0 33 C0.48678223 32.63592041 0.97356445 32.27184082 1.47509766 31.89672852 C3.66925681 29.16755425 3.38818253 27.1212079 3.3984375 23.65234375 C3.40230469 22.40775391 3.40617187 21.16316406 3.41015625 19.88085938 C3.39855469 18.57955078 3.38695312 17.27824219 3.375 15.9375 C3.38660156 14.63232422 3.39820313 13.32714844 3.41015625 11.98242188 C3.40628906 10.73912109 3.40242188 9.49582031 3.3984375 8.21484375 C3.39505371 7.07136475 3.39166992 5.92788574 3.38818359 4.74975586 C3.26008301 3.84233643 3.13198242 2.93491699 3 2 C2.01 1.34 1.02 0.68 0 0 Z " fill="#E62423" transform="translate(44,30)"/>
<path d="M0 0 C0 11.55 0 23.1 0 35 C-4.95 35 -9.9 35 -15 35 C-17 33 -17 33 -17.125 30.375 C-17.08375 29.59125 -17.0425 28.8075 -17 28 C-15.35 27.67 -13.7 27.34 -12 27 C-12 28.32 -12 29.64 -12 31 C-11.22678118 28.01758453 -10.58803797 25.02419525 -10 22 C-10.66 22 -11.32 22 -12 22 C-12 22.99 -12 23.98 -12 25 C-13.65 25 -15.3 25 -17 25 C-17.042721 23.33388095 -17.04063832 21.66617115 -17 20 C-14.95301586 17.95301586 -10.69588759 18.29954307 -8 18 C-8.33 17.01 -8.66 16.02 -9 15 C-9 15.99 -9 16.98 -9 18 C-11.64 18 -14.28 18 -17 18 C-17.08074203 15.37438891 -17.1403623 12.75124324 -17.1875 10.125 C-17.21263672 9.37863281 -17.23777344 8.63226563 -17.26367188 7.86328125 C-17.29296875 5.6953125 -17.29296875 5.6953125 -17 2 C-14 0 -14 0 0 0 Z " fill="#1B1068" transform="translate(38,28)"/>
<path d="M0 0 C3.6578218 2.03993908 5.66946174 3.50419262 8 7 C8.81654955 12.5673833 8.24481219 17.30061683 5 22 C2.24631394 24.23271843 0.51741376 24.93532328 -3 25.375 C-7.50562475 24.81179691 -9.93019386 23.29114534 -12.8125 19.8125 C-14.38619298 16.08533241 -14.59189366 12.9892011 -14 9 C-11.32367331 2.80219083 -6.93550512 -1.13232737 0 0 Z " fill="#2A206E" transform="translate(164,39)"/>
<path d="M0 0 C2.70567626 1.82339052 4.53728718 3.07457436 6 6 C6.5878933 11.65282017 6.31475894 16.19931464 3 21 C0.24631394 23.23271843 -1.48258624 23.93532328 -5 24.375 C-9.48078796 23.81490151 -11.89944927 22.29030086 -14.8125 18.875 C-16.49118858 14.81080658 -16.92968895 11.32379148 -16 7 C-11.9394795 0.13031438 -7.90365095 -1.77150797 0 0 Z " fill="#1C0F69" transform="translate(262,40)"/>
<path d="M0 0 C1.17755859 0.13535156 1.17755859 0.13535156 2.37890625 0.2734375 C4.4375 0.625 4.4375 0.625 6.4375 1.625 C6.4375 0.965 6.4375 0.305 6.4375 -0.375 C7.4275 -0.375 8.4175 -0.375 9.4375 -0.375 C9.4375 3.585 9.4375 7.545 9.4375 11.625 C8.4475 11.625 7.4575 11.625 6.4375 11.625 C6.19 10.696875 5.9425 9.76875 5.6875 8.8125 C4.35733834 5.42058777 3.68610005 4.20289145 0.4375 2.625 C-2.2609589 2.84697813 -2.2609589 2.84697813 -4.5625 3.625 C-4.8925 5.275 -5.2225 6.925 -5.5625 8.625 C-4.98242188 9.01171875 -4.40234375 9.3984375 -3.8046875 9.796875 C-2.18719773 10.87520151 -0.57138524 11.95604707 1.04296875 13.0390625 C2.44923691 13.97045707 3.86487707 14.8884148 5.30078125 15.7734375 C8.37696739 17.68174156 10.51510286 19.03790001 11.4375 22.625 C11.35965222 26.98447595 11.16609395 28.91508795 8 32 C3.21692146 35.03317176 -0.15213706 35.05035817 -5.75 34.0625 C-8.63323971 33.39397483 -8.63323971 33.39397483 -11.5625 34.625 C-11.5625 30.665 -11.5625 26.705 -11.5625 22.625 C-10.5725 22.625 -9.5825 22.625 -8.5625 22.625 C-8.088125 23.759375 -7.61375 24.89375 -7.125 26.0625 C-5.92627917 29.38240166 -5.92627917 29.38240166 -4.5625 30.625 C-2.68928052 30.78553815 -2.68928052 30.78553815 -0.5625 30.75 C0.159375 30.75257812 0.88125 30.75515625 1.625 30.7578125 C3.45839415 30.82195276 3.45839415 30.82195276 4.4375 29.625 C4.93885199 27.25278044 4.93885199 27.25278044 4.4375 24.625 C2.48258754 22.55314247 2.48258754 22.55314247 -0.5625 20.625 C-2.31509335 19.4204312 -4.06490048 18.21180253 -5.8125 17 C-6.68390625 16.40960938 -7.5553125 15.81921875 -8.453125 15.2109375 C-10.5625 13.625 -10.5625 13.625 -11.5625 11.625 C-12.14051822 5.38240319 -12.14051822 5.38240319 -9.75 2.25 C-6.37041298 -0.26055036 -4.04454696 -0.49307492 0 0 Z " fill="#23166E" transform="translate(134.5625,29.375)"/>
<path d="M0 0 C2.97 0 5.94 0 9 0 C9.33 6.27 9.66 12.54 10 19 C11.65 18.67 13.3 18.34 15 18 C15.33 12.72 15.66 7.44 16 2 C15.01 2 14.02 2 13 2 C13 1.34 13 0.68 13 0 C15.97 0 18.94 0 22 0 C22 6.6 22 13.2 22 20 C22.99 20.33 23.98 20.66 25 21 C19.375 24 19.375 24 16 24 C15.67 23.34 15.34 22.68 15 22 C14.01 22.66 13.02 23.32 12 24 C9.17046252 24.35369219 7.67067156 24.51825079 5.37573242 22.74487305 C3.69576493 20.61413167 3.58361201 19.45785862 3.48828125 16.76953125 C3.45283203 15.96708984 3.41738281 15.16464844 3.38085938 14.33789062 C3.35830078 13.50451172 3.33574219 12.67113281 3.3125 11.8125 C3.27833984 10.96751953 3.24417969 10.12253906 3.20898438 9.25195312 C3.12658529 7.16843351 3.06161355 5.08423784 3 3 C2.01 2.67 1.02 2.34 0 2 C0 1.34 0 0.68 0 0 Z " fill="#302576" transform="translate(189,40)"/>
<path d="M0 0 C9.24 0 18.48 0 28 0 C28 2.31 28 4.62 28 7 C27.01 7 26.02 7 25 7 C24.79375 6.360625 24.5875 5.72125 24.375 5.0625 C23.694375 4.0415625 23.694375 4.0415625 23 3 C20.03 2.505 20.03 2.505 17 2 C17 11.57 17 21.14 17 31 C18.32 31 19.64 31 21 31 C21 31.66 21 32.32 21 33 C16.05 33 11.1 33 6 33 C6 32.34 6 31.68 6 31 C7.32 30.67 8.64 30.34 10 30 C10.33 20.76 10.66 11.52 11 2 C8.69 2.33 6.38 2.66 4 3 C2.48705712 4.93597032 2.48705712 4.93597032 2 7 C1.34 7 0.68 7 0 7 C0 4.69 0 2.38 0 0 Z " fill="#E61B18" transform="translate(78,30)"/>
<path d="M0 0 C2.88437703 4.32656555 2.42319128 8.79362224 2.56640625 13.83984375 C2.72014133 17.69658901 2.8137513 19.72062696 5 23 C1.37 23 -2.26 23 -6 23 C-5.34 22.34 -4.68 21.68 -4 21 C-3.85482256 18.0906442 -3.81369204 15.280054 -3.875 12.375 C-3.88402344 11.57320312 -3.89304687 10.77140625 -3.90234375 9.9453125 C-3.92593777 7.96341477 -3.96180935 5.98167019 -4 4 C-7.29075996 4.37904208 -7.29075996 4.37904208 -10 6 C-10.15215174 8.28812814 -10.22186492 10.58199128 -10.25 12.875 C-10.27578125 14.13054688 -10.3015625 15.38609375 -10.328125 16.6796875 C-10.32366864 20.31047035 -10.32366864 20.31047035 -7 23 C-10.96 23 -14.92 23 -19 23 C-19 22.34 -19 21.68 -19 21 C-18.01 21 -17.02 21 -16 21 C-16 15.06 -16 9.12 -16 3 C-16.99 2.67 -17.98 2.34 -19 2 C-15.91190305 0.23537317 -14.76687864 0 -11 0 C-11 0.66 -11 1.32 -11 2 C-10.29875 1.484375 -9.5975 0.96875 -8.875 0.4375 C-5.34522437 -1.32738782 -3.72617026 -1.15925297 0 0 Z " fill="#1F126C" transform="translate(290,40)"/>
<path d="M0 0 C0.33 0 0.66 0 1 0 C1 3.96 1 7.92 1 12 C5.29 12 9.58 12 14 12 C14 12.66 14 13.32 14 14 C11.03 14 8.06 14 5 14 C5 18.62 5 23.24 5 28 C7.413125 27.566875 7.413125 27.566875 9.875 27.125 C11.23238281 26.88136719 11.23238281 26.88136719 12.6171875 26.6328125 C15.16505988 26.16955297 15.16505988 26.16955297 17 24 C17.24339551 21.10116917 17.24339551 21.10116917 17.125 17.875 C17.10695313 16.77929688 17.08890625 15.68359375 17.0703125 14.5546875 C17.04710938 13.71164063 17.02390625 12.86859375 17 12 C23.78571429 18.78571429 23.78571429 18.78571429 24 25 C22.12325501 27.74293499 20.8789283 28.77676704 17.65551758 29.59545898 C15.09720262 29.98519217 12.72179888 30.11433419 10.13671875 30.09765625 C8.80737305 30.09282227 8.80737305 30.09282227 7.45117188 30.08789062 C6.53916016 30.07951172 5.62714844 30.07113281 4.6875 30.0625 C3.75615234 30.05798828 2.82480469 30.05347656 1.86523438 30.04882812 C-0.42324373 30.03709234 -2.71158808 30.02067363 -5 30 C-4.34 29.34 -3.68 28.68 -3 28 C-2.01 28 -1.02 28 0 28 C0 18.76 0 9.52 0 0 Z " fill="#E61A16" transform="translate(49,33)"/>
<path d="M0 0 C0 10.89 0 21.78 0 33 C0.99 33 1.98 33 3 33 C3 33.66 3 34.32 3 35 C-0.96 35 -4.92 35 -9 35 C-9 34.34 -9 33.68 -9 33 C-8.01 33 -7.02 33 -6 33 C-6 23.43 -6 13.86 -6 4 C-6.99 3.67 -7.98 3.34 -9 3 C-3.375 0 -3.375 0 0 0 Z " fill="#3A2E7A" transform="translate(185,28)"/>
<path d="M0 0 C0.33 0 0.66 0 1 0 C1.33 2.64 1.66 5.28 2 8 C4.90600261 9.25664978 6.79604584 10 10 10 C9.77082032 11.60727327 9.51579198 13.21087416 9.25 14.8125 C9.11078125 15.70582031 8.9715625 16.59914063 8.828125 17.51953125 C7.82048209 20.53770694 6.74583104 21.46067048 4 23 C1.75 22.6875 1.75 22.6875 0 22 C0.33 19.69 0.66 17.38 1 15 C-2.10540926 13.78918149 -2.10540926 13.78918149 -6 14 C-7 13 -7 13 -7.09765625 10.49609375 C-7.08605469 9.48675781 -7.07445312 8.47742188 -7.0625 7.4375 C-7.05347656 6.42558594 -7.04445313 5.41367187 -7.03515625 4.37109375 C-7.02355469 3.58863281 -7.01195312 2.80617187 -7 2 C-5.35 1.67 -3.7 1.34 -2 1 C-2 1.66 -2 2.32 -2 3 C-1.34 3 -0.68 3 0 3 C0 2.01 0 1.02 0 0 Z " fill="#F0F0F5" transform="translate(7,38)"/>
<path d="M0 0 C2.31 0 4.62 0 7 0 C7 0.66 7 1.32 7 2 C7.99 2 8.98 2 10 2 C10 7.61 10 13.22 10 19 C8.02 19.99 8.02 19.99 6 21 C5.67 19.68 5.34 18.36 5 17 C3.35 17.33 1.7 17.66 0 18 C0 12.06 0 6.12 0 0 Z " fill="#F8F8F9" transform="translate(224,42)"/>
<path d="M0 0 C0.66 0 1.32 0 2 0 C2 2.31 2 4.62 2 7 C3.65 7 5.3 7 7 7 C7 7.66 7 8.32 7 9 C5.35 9 3.7 9 2 9 C2 14.94 2 20.88 2 27 C3.65 26.67 5.3 26.34 7 26 C5.125 29.875 5.125 29.875 4 31 C1.5625 31.1875 1.5625 31.1875 -1 31 C-3 29 -3 29 -3.22705078 26.93701172 C-3.21657715 26.10959473 -3.20610352 25.28217773 -3.1953125 24.4296875 C-3.18886719 23.53378906 -3.18242187 22.63789062 -3.17578125 21.71484375 C-3.15902344 20.77769531 -3.14226562 19.84054688 -3.125 18.875 C-3.11597656 17.93011719 -3.10695312 16.98523438 -3.09765625 16.01171875 C-3.07404522 13.67422708 -3.04111516 11.33723877 -3 9 C-4.32 8.67 -5.64 8.34 -7 8 C-6.071875 7.6596875 -6.071875 7.6596875 -5.125 7.3125 C-2.37585439 5.6144983 -2.00115914 4.00347742 -1 1 C-0.67 0.67 -0.34 0.34 0 0 Z " fill="#100662" transform="translate(222,33)"/>
<path d="M0 0 C2.625 0.5625 2.625 0.5625 4.9375 2.9375 C7.10462769 7.59281133 7.52601008 11.50298187 6.625 16.5625 C4.625 19.1875 4.625 19.1875 2.625 20.5625 C0.07936943 19.59691599 -1.32135204 18.62381195 -3.125 16.5625 C-4.90385741 12.29324222 -4.9715522 8.13348437 -4.375 3.5625 C-2.375 0.5625 -2.375 0.5625 0 0 Z " fill="#F2F1F4" transform="translate(256.375,41.4375)"/>
<path d="M0 0 C2.4375 -0.4375 2.4375 -0.4375 5 0 C7.41900331 2.37868659 7.9727515 3.76267439 8.36328125 7.1640625 C8.34652344 8.30617188 8.32976562 9.44828125 8.3125 10.625 C8.30863281 11.77226563 8.30476562 12.91953125 8.30078125 14.1015625 C8 17 8 17 6 19 C3.5625 18.9375 3.5625 18.9375 1 18 C-2.54425547 14.21131311 -2.32319413 10.2205783 -2.30078125 5.3046875 C-2 3 -2 3 0 0 Z " fill="#F9F9FA" transform="translate(158,42)"/>
<path d="M0 0 C1.875 1.1875 1.875 1.1875 3 3 C2.6875 5.6875 2.6875 5.6875 2 8 C0.35 8 -1.3 8 -3 8 C-3 7.01 -3 6.02 -3 5 C-3.33 6.98 -3.66 8.96 -4 11 C-3.071875 10.649375 -2.14375 10.29875 -1.1875 9.9375 C2 9 2 9 5 10 C4.67 10.66 4.34 11.32 4 12 C5.32 12.33 6.64 12.66 8 13 C7.67 13.99 7.34 14.98 7 16 C6.34 15.34 5.68 14.68 5 14 C2.39719432 14.32041397 2.39719432 14.32041397 0 15 C0 15.99 0 16.98 0 18 C-2.64 18 -5.28 18 -8 18 C-8.08074203 15.37438891 -8.1403623 12.75124324 -8.1875 10.125 C-8.21263672 9.37863281 -8.23777344 8.63226563 -8.26367188 7.86328125 C-8.29296875 5.6953125 -8.29296875 5.6953125 -8 2 C-4.76746204 -0.15502531 -3.74849077 -0.46856135 0 0 Z " fill="#160D64" transform="translate(29,28)"/>
<path d="M0 0 C7.92 0 7.92 0 12 3 C13 4 13 4 13.375 6.8125 C13 10 13 10 11 12.375 C7.00223382 14.54045668 4.49937346 14.30504227 0 14 C0 9.38 0 4.76 0 0 Z " fill="#FBF3F2" transform="translate(54,47)"/>
<path d="M0 0 C3.98552174 -0.31258994 6.41761211 -0.30332702 10 1.5625 C12 4 12 4 12 7.625 C11 11 11 11 8 13 C5.95703125 13.1953125 5.95703125 13.1953125 3.8125 13.125 C1.9253125 13.063125 1.9253125 13.063125 0 13 C0 8.71 0 4.42 0 0 Z " fill="#FBF7F5" transform="translate(54,32)"/>
<path d="M0 0 C0.33 6.6 0.66 13.2 1 20 C1.99 20.33 2.98 20.66 4 21 C4 21.66 4 22.32 4 23 C0.04 23 -3.92 23 -8 23 C-7.34 22.34 -6.68 21.68 -6 21 C-5.69324768 18.10032243 -5.48826629 15.28216822 -5.375 12.375 C-5.33632812 11.57320312 -5.29765625 10.77140625 -5.2578125 9.9453125 C-5.16346069 7.96392444 -5.08063785 5.98199355 -5 4 C-5.99 4 -6.98 4 -8 4 C-7.67 3.01 -7.34 2.02 -7 1 C-5 0 -5 0 0 0 Z " fill="#1B0E69" transform="translate(239,40)"/>
<path d="M0 0 C2.97 0 5.94 0 9 0 C9 6.6 9 13.2 9 20 C8.01 19.34 7.02 18.68 6 18 C6.33 16.35 6.66 14.7 7 13 C5.35 13.33 3.7 13.66 2 14 C2.66 12.68 3.32 11.36 4 10 C-0.64586892 10.48484276 -0.64586892 10.48484276 -5 12 C-4.67 9.69 -4.34 7.38 -4 5 C-3.01 5 -2.02 5 -1 5 C-1.99 6.485 -1.99 6.485 -3 8 C-1.35 7.67 0.3 7.34 2 7 C1.34414811 3.39007621 1.34414811 3.39007621 0 0 Z " fill="#EAE8F1" transform="translate(29,28)"/>
<path d="M0 0 C2.97 0 5.94 0 9 0 C9.33 6.93 9.66 13.86 10 21 C8.68 21 7.36 21 6 21 C6 19.35 6 17.7 6 16 C5.34 16 4.68 16 4 16 C3.67 11.71 3.34 7.42 3 3 C2.01 2.67 1.02 2.34 0 2 C0 1.34 0 0.68 0 0 Z " fill="#281B70" transform="translate(189,40)"/>
<path d="M0 0 C4.29 0 8.58 0 13 0 C13 2.31 13 4.62 13 7 C12.01 6.34 11.02 5.68 10 5 C9.01 5 8.02 5 7 5 C7 7.64 7 10.28 7 13 C6.34 13 5.68 13 5 13 C5 12.34 5 11.68 5 11 C3.35 11.33 1.7 11.66 0 12 C0 8.04 0 4.08 0 0 Z " fill="#FBFBFC" transform="translate(0,28)"/>
<path d="M0 0 C4.13998349 -0.32470459 6.33999001 -0.4304413 9.875 1.875 C12.73711325 4.73711325 13.16961929 6.31134509 13.25 10.25 C13.22254521 14.49862813 12.25284355 17.33912922 10 21 C7.88310511 17.82465767 7.77091966 16.84110384 7.625 13.1875 C7.23929821 8.46954059 6.1260568 5.67771388 3 2 C2.01 1.34 1.02 0.68 0 0 Z " fill="#1C0F68" transform="translate(159,40)"/>
<path d="M0 0 C1.32 0.33 2.64 0.66 4 1 C4.66 0.67 5.32 0.34 6 0 C6.99 0.66 7.98 1.32 9 2 C8.67 4.31 8.34 6.62 8 9 C9.65 8.67 11.3 8.34 13 8 C13.33 9.32 13.66 10.64 14 12 C9.38 12 4.76 12 0 12 C0 8.04 0 4.08 0 0 Z " fill="#FCFBFD" transform="translate(0,51)"/>
<path d="M0 0 C1.32 0 2.64 0 4 0 C4.33 0.99 4.66 1.98 5 3 C4.34 3.66 3.68 4.32 3 5 C2.94918862 6.97581668 2.94918862 6.97581668 4 9 C5.65002828 10.35386936 7.3174387 11.68678142 9 13 C10.85141842 15.60881687 11.06204237 16.54502262 10.625 19.75 C10.41875 20.4925 10.2125 21.235 10 22 C8.68 21.67 7.36 21.34 6 21 C6.33 18.69 6.66 16.38 7 14 C3.89459074 12.78918149 3.89459074 12.78918149 0 13 C-1 12 -1 12 -1.1328125 9.53125 C-1.13023438 8.5309375 -1.12765625 7.530625 -1.125 6.5 C-1.12757812 5.4996875 -1.13015625 4.499375 -1.1328125 3.46875 C-1 1 -1 1 0 0 Z " fill="#766FA4" transform="translate(1,39)"/>
<path d="M0 0 C0.99 0 1.98 0 3 0 C3 9.57 3 19.14 3 29 C4.32 29 5.64 29 7 29 C7 29.66 7 30.32 7 31 C2.05 31 -2.9 31 -8 31 C-8 30.34 -8 29.68 -8 29 C-5.03 29 -2.06 29 1 29 C0.67 19.43 0.34 9.86 0 0 Z " fill="#E94241" transform="translate(92,32)"/>
<path d="M0 0 C2.0625 0.4375 2.0625 0.4375 4 1 C3.835 1.680625 3.67 2.36125 3.5 3.0625 C2.92910941 6.4164822 2.93340977 9.60389805 3 13 C4.11375 13.0825 5.2275 13.165 6.375 13.25 C10 14 10 14 11.4375 16.0625 C11.623125 16.701875 11.80875 17.34125 12 18 C11.34 18.66 10.68 19.32 10 20 C9.60235737 21.98821313 9.26224651 23.98944339 9 26 C9.66 26 10.32 26 11 26 C11.33 26.99 11.66 27.98 12 29 C11.34 29.66 10.68 30.32 10 31 C7.875 30.625 7.875 30.625 6 30 C6.28284018 28.22773547 6.57660498 26.457212 6.875 24.6875 C7.03742187 23.70136719 7.19984375 22.71523438 7.3671875 21.69921875 C8 19 8 19 10 16 C9.01 16 8.02 16 7 16 C6.67 16.66 6.34 17.32 6 18 C6 17.34 6 16.68 6 16 C3.525 15.01 3.525 15.01 1 14 C0.855625 12.783125 0.71125 11.56625 0.5625 10.3125 C0.26118339 7.84956424 -0.10773279 5.49365588 -0.625 3.0625 C-0.74875 2.381875 -0.8725 1.70125 -1 1 C-0.67 0.67 -0.34 0.34 0 0 Z " fill="#605695" transform="translate(7,32)"/>
<path d="M0 0 C0.66 0.33 1.32 0.66 2 1 C2.04898437 2.19238281 2.09796875 3.38476562 2.1484375 4.61328125 C2.22347604 6.17971068 2.2990234 7.74611579 2.375 9.3125 C2.4059375 10.09818359 2.436875 10.88386719 2.46875 11.69335938 C2.50742187 12.45068359 2.54609375 13.20800781 2.5859375 13.98828125 C2.6173584 14.68477783 2.6487793 15.38127441 2.68115234 16.09887695 C2.92118253 18.32532739 2.92118253 18.32532739 5 21 C1.37 21 -2.26 21 -6 21 C-5.01 20.01 -4.02 19.02 -3 18 C-2.41907008 14.80754002 -2.41907008 14.80754002 -2.3125 11.3125 C-2.21388672 9.54326172 -2.21388672 9.54326172 -2.11328125 7.73828125 C-2.07589844 6.83464844 -2.03851563 5.93101563 -2 5 C-1.67 5 -1.34 5 -1 5 C-0.67 3.35 -0.34 1.7 0 0 Z " fill="#1C0E6A" transform="translate(290,42)"/>
<path d="M0 0 C0.33 0 0.66 0 1 0 C1.01981934 0.59014893 1.03963867 1.18029785 1.06005859 1.78833008 C1.15534659 4.46350096 1.26500939 7.13789498 1.375 9.8125 C1.4059375 10.74126953 1.436875 11.67003906 1.46875 12.62695312 C1.50742188 13.51962891 1.54609375 14.41230469 1.5859375 15.33203125 C1.63306885 16.56530151 1.63306885 16.56530151 1.68115234 17.82348633 C1.88373622 20.28952937 1.88373622 20.28952937 4 23 C-2.93 23 -9.86 23 -17 23 C-17 22.34 -17 21.68 -17 21 C-15.68 20.34 -14.36 19.68 -13 19 C-13 19.99 -13 20.98 -13 22 C-9.04 20.515 -9.04 20.515 -5 19 C-5.66 18.34 -6.32 17.68 -7 17 C-2.125 17.875 -2.125 17.875 -1 19 C-0.67 12.73 -0.34 6.46 0 0 Z " fill="#DCDAE5" transform="translate(218,42)"/>
<path d="M0 0 C0.77601563 0.09925781 1.55203125 0.19851562 2.3515625 0.30078125 C4.375 0.6875 4.375 0.6875 6.375 1.6875 C6.375 1.0275 6.375 0.3675 6.375 -0.3125 C7.365 -0.3125 8.355 -0.3125 9.375 -0.3125 C9.375 3.6475 9.375 7.6075 9.375 11.6875 C8.385 11.6875 7.395 11.6875 6.375 11.6875 C6.1275 10.759375 5.88 9.83125 5.625 8.875 C4.29483834 5.48308777 3.62360005 4.26539145 0.375 2.6875 C-2.32309776 2.94446169 -4.20850693 3.47925346 -6.625 4.6875 C-6.625 4.0275 -6.625 3.3675 -6.625 2.6875 C-7.285 2.3575 -7.945 2.0275 -8.625 1.6875 C-5.50156536 -0.17372475 -3.5866974 -0.4978192 0 0 Z " fill="#383079" transform="translate(134.625,29.3125)"/>
<path d="M0 0 C1.875 1.1875 1.875 1.1875 3 3 C2.6875 5.6875 2.6875 5.6875 2 8 C0.35 8 -1.3 8 -3 8 C-3 7.01 -3 6.02 -3 5 C-3.66 7.31 -4.32 9.62 -5 12 C-5.66 12 -6.32 12 -7 12 C-7.33 8.7 -7.66 5.4 -8 2 C-4.76746204 -0.15502531 -3.74849077 -0.46856135 0 0 Z " fill="#22166D" transform="translate(29,28)"/>
<path d="M0 0 C0.99 0 1.98 0 3 0 C3.474375 1.134375 3.94875 2.26875 4.4375 3.4375 C5.63622083 6.75740166 5.63622083 6.75740166 7 8 C8.51469448 8.23192865 10.03754562 8.41215238 11.5625 8.5625 C12.38878906 8.64628906 13.21507812 8.73007812 14.06640625 8.81640625 C14.70449219 8.87699219 15.34257812 8.93757813 16 9 C15.67 9.99 15.34 10.98 15 12 C11.82475295 12.07560112 8.94764868 11.99076153 5.8125 11.4375 C2.92926029 10.76897483 2.92926029 10.76897483 0 12 C0 8.04 0 4.08 0 0 Z " fill="#342B74" transform="translate(123,52)"/>
<path d="M0 0 C0.33 0.66 0.66 1.32 1 2 C0.67 2.66 0.34 3.32 0 4 C1.98 3.34 3.96 2.68 6 2 C6 5.63 6 9.26 6 13 C2.37 13 -1.26 13 -5 13 C-4.34 12.01 -3.68 11.02 -3 10 C-1.68 10 -0.36 10 1 10 C1.33 8.68 1.66 7.36 2 6 C1.01 5.67 0.02 5.34 -1 5 C-0.67 3.35 -0.34 1.7 0 0 Z " fill="#E8E7F0" transform="translate(32,50)"/>
<path d="M0 0 C0.99 0 1.98 0 3 0 C2.96519531 1.24716797 2.96519531 1.24716797 2.9296875 2.51953125 C2.91164062 3.60621094 2.89359375 4.69289063 2.875 5.8125 C2.85179687 6.89144531 2.82859375 7.97039063 2.8046875 9.08203125 C2.76976283 12.19402868 2.76976283 12.19402868 5 15 C5 15.99 5 16.98 5 18 C2.1048317 17.70049983 1.16176506 17.19065168 -0.75 14.9375 C-2.67664102 10.40989361 -2.86803019 6.17007547 -1 1.5 C-0.67 1.005 -0.34 0.51 0 0 Z " fill="#2C2073" transform="translate(152,44)"/>
<path d="M0 0 C0.66 1.32 1.32 2.64 2 4 C1.01 5.485 1.01 5.485 0 7 C0.639375 7.28875 1.27875 7.5775 1.9375 7.875 C4 9 4 9 5 11 C5.039992 12.99960012 5.04346799 15.00047242 5 17 C4.34 17 3.68 17 3 17 C3 15.02 3 13.04 3 11 C2.01 10.67 1.02 10.34 0 10 C-0.66 9.01 -1.32 8.02 -2 7 C-2 7.99 -2 8.98 -2 10 C-3.98 9.34 -5.96 8.68 -8 8 C-7.34 7.67 -6.68 7.34 -6 7 C-6.33 6.01 -6.66 5.02 -7 4 C-4.61426621 2.10786631 -2.92824652 0.97608217 0 0 Z " fill="#E42220" transform="translate(69,40)"/>
<path d="M0 0 C0.33 0 0.66 0 1 0 C1 4.95 1 9.9 1 15 C1.66 15 2.32 15 3 15 C3 10.38 3 5.76 3 1 C3.33 1 3.66 1 4 1 C4.03738281 2.04800781 4.07476562 3.09601562 4.11328125 4.17578125 C4.17894515 5.55472305 4.24539235 6.93362771 4.3125 8.3125 C4.33505859 9.00279297 4.35761719 9.69308594 4.38085938 10.40429688 C4.61274126 14.76789236 4.77200653 15.77200653 8 19 C4.04 19 0.08 19 -4 19 C-4 18.34 -4 17.68 -4 17 C-3.01 16.67 -2.02 16.34 -1 16 C-0.67 10.72 -0.34 5.44 0 0 Z " fill="#1A0F67" transform="translate(275,44)"/>
<path d="M0 0 C0.33 0 0.66 0 1 0 C1 2.31 1 4.62 1 7 C2.32 6.67 3.64 6.34 5 6 C5.8971875 7.3921875 5.8971875 7.3921875 6.8125 8.8125 C8.45272845 11.20254718 9.8718917 13.08470253 12 15 C7.83047551 15.40877691 5.64129177 15.40933517 2.0625 13.125 C-0.82275119 8.75340728 -0.44494135 5.09210661 0 0 Z " fill="#1E136A" transform="translate(247,48)"/>
<path d="M0 0 C2.97 0 5.94 0 9 0 C9 6.27 9 12.54 9 19 C8.34 19 7.68 19 7 19 C7 13.39 7 7.78 7 2 C4.69 2 2.38 2 0 2 C0 1.34 0 0.68 0 0 Z " fill="#3F367E" transform="translate(202,40)"/>
<path d="M0 0 C0.66 0 1.32 0 2 0 C2 2.31 2 4.62 2 7 C3.65 7 5.3 7 7 7 C7 7.66 7 8.32 7 9 C5.35 9 3.7 9 2 9 C2 14.61 2 20.22 2 26 C1.67 26 1.34 26 1 26 C1 20.39 1 14.78 1 9 C0.34 9 -0.32 9 -1 9 C-1.09765625 2.84765625 -1.09765625 2.84765625 -1 1 C-0.67 0.67 -0.34 0.34 0 0 Z " fill="#463E81" transform="translate(222,33)"/>
<path d="M0 0 C0 1.98 0 3.96 0 6 C-0.99 6.495 -0.99 6.495 -2 7 C-2.46898963 9.8159849 -2.46898963 9.8159849 -2.625 13.0625 C-2.69976562 14.16722656 -2.77453125 15.27195312 -2.8515625 16.41015625 C-2.90054688 17.26480469 -2.94953125 18.11945312 -3 19 C-3.33 19 -3.66 19 -4 19 C-4 13.72 -4 8.44 -4 3 C-4.99 3 -5.98 3 -7 3 C-6.67 2.01 -6.34 1.02 -6 0 C-3.50907189 -1.24546405 -2.58919267 -0.7767578 0 0 Z " fill="#3C317B" transform="translate(238,41)"/>
<path d="M0 0 C2.0625 0.4375 2.0625 0.4375 4 1 C3.814375 2.2375 3.62875 3.475 3.4375 4.75 C3.05288777 7.76279577 2.9125406 10.10010827 4 13 C2.68 13.33 1.36 13.66 0 14 C-1.12556187 10.6233144 -0.6876151 8.43807549 0 5 C-0.2981424 3.65835921 -0.62243192 2.32148827 -1 1 C-0.67 0.67 -0.34 0.34 0 0 Z " fill="#6E669F" transform="translate(13,28)"/>
<path d="M0 0 C2.9375 0.375 2.9375 0.375 6 1 C7.53445094 4.06890187 6.54984289 6.70094266 6 10 C5.67 10 5.34 10 5 10 C4.67 13.63 4.34 17.26 4 21 C3.67 21 3.34 21 3 21 C2.67 15.06 2.34 9.12 2 3 C1.34 2.67 0.68 2.34 0 2 C0 1.34 0 0.68 0 0 Z " fill="#332774" transform="translate(284,39)"/>
<path d="M0 0 C8.91 0 17.82 0 27 0 C27 0.33 27 0.66 27 1 C26.34926514 1.00410889 25.69853027 1.00821777 25.02807617 1.01245117 C22.08029254 1.04534173 19.13458866 1.11597762 16.1875 1.1875 C15.16333984 1.19330078 14.13917969 1.19910156 13.08398438 1.20507812 C10.29931936 1.28724857 7.72184536 1.4013672 5 2 C2.84419983 4.3768061 2.84419983 4.3768061 2 7 C1.34 7 0.68 7 0 7 C0 4.69 0 2.38 0 0 Z " fill="#E30C0B" transform="translate(78,30)"/>
<path d="M0 0 C6.97630332 4.2464455 6.97630332 4.2464455 8 8 C7.625 10.75 7.625 10.75 7 13 C5.68 12.67 4.36 12.34 3 12 C3.33 9.69 3.66 7.38 4 5 C2.35 4.67 0.7 4.34 -1 4 C-0.67 2.68 -0.34 1.36 0 0 Z " fill="#756DA3" transform="translate(4,48)"/>
<path d="M0 0 C-1.875 3.875 -1.875 3.875 -3 5 C-5.4375 5.1875 -5.4375 5.1875 -8 5 C-8.66 4.34 -9.32 3.68 -10 3 C-10 2.01 -10 1.02 -10 0 C-6.7169902 -1.6415049 -3.57454967 -0.51888624 0 0 Z " fill="#1F126D" transform="translate(229,59)"/>
<path d="M0 0 C-0.66 1.65 -1.32 3.3 -2 5 C-2.33 5 -2.66 5 -3 5 C-3.33 9.95 -3.66 14.9 -4 20 C-4.33 20 -4.66 20 -5 20 C-5 14.39 -5 8.78 -5 3 C-5.99 2.67 -6.98 2.34 -8 2 C-4.91190305 0.23537317 -3.76687864 0 0 0 Z " fill="#2E2370" transform="translate(279,40)"/>
<path d="M0 0 C0.33 0 0.66 0 1 0 C1.33 4.62 1.66 9.24 2 14 C-1.99110319 15.9955516 -3.69986566 16.19546065 -8 16 C-6.35808858 14.19389744 -5.25896078 13.09416756 -2.9375 12.25 C-0.71343247 11.13273647 -0.71343247 11.13273647 -0.390625 8.3984375 C-0.34421875 7.40070312 -0.2978125 6.40296875 -0.25 5.375 C-0.19328125 4.37210938 -0.1365625 3.36921875 -0.078125 2.3359375 C-0.05234375 1.56507812 -0.0265625 0.79421875 0 0 Z " fill="#59508F" transform="translate(166,48)"/>
<path d="M0 0 C0.99 0.99 1.98 1.98 3 3 C3.66 2.67 4.32 2.34 5 2 C5 4.31 5 6.62 5 9 C3.02 9.66 1.04 10.32 -1 11 C-1.0270043 9.54176788 -1.04639787 8.08339325 -1.0625 6.625 C-1.07410156 5.81289063 -1.08570313 5.00078125 -1.09765625 4.1640625 C-1 2 -1 2 0 0 Z " fill="#42367F" transform="translate(247,45)"/>
<path d="M0 0 C-0.99 1.485 -0.99 1.485 -2 3 C-2.66515625 3.13277344 -3.3303125 3.26554687 -4.015625 3.40234375 C-4.67046875 3.59957031 -5.3253125 3.79679687 -6 4 C-7.1375213 6.08034294 -7.1375213 6.08034294 -7.75 8.5625 C-7.99234375 9.38878906 -8.2346875 10.21507812 -8.484375 11.06640625 C-8.65453125 11.70449219 -8.8246875 12.34257813 -9 13 C-9.33 13 -9.66 13 -10 13 C-10 3 -10 3 -8.375 1.3125 C-5.41801336 -0.32162419 -3.32820054 -0.22692276 0 0 Z " fill="#332878" transform="translate(164,39)"/>
<path d="M0 0 C0.99 0.99 1.98 1.98 3 3 C3.66 3 4.32 3 5 3 C4.60196439 5.88575819 4.20990931 6.82189513 1.9375 8.75 C1.298125 9.1625 0.65875 9.575 0 10 C-0.66 9.67 -1.32 9.34 -2 9 C-1.34 6.03 -0.68 3.06 0 0 Z " fill="#1D1068" transform="translate(140,53)"/>
<path d="M0 0 C0.66 0.33 1.32 0.66 2 1 C2 3.97 2 6.94 2 10 C1.01 10.495 1.01 10.495 0 11 C0 9.35 0 7.7 0 6 C-1.65 6 -3.3 6 -5 6 C-4.34 5.01 -3.68 4.02 -3 3 C-2.34 3 -1.68 3 -1 3 C-0.67 2.01 -0.34 1.02 0 0 Z " fill="#22166C" transform="translate(220,36)"/>
<path d="M0 0 C0.99 0 1.98 0 3 0 C3.309375 1.11375 3.61875 2.2275 3.9375 3.375 C4.82326483 6.7945155 4.82326483 6.7945155 6 9 C5.01 8.67 4.02 8.34 3 8 C2.34 8.66 1.68 9.32 1 10 C-0.48616871 8.51383129 -0.36764958 7.0588034 -0.625 5 C-0.72039062 4.278125 -0.81578125 3.55625 -0.9140625 2.8125 C-0.94242187 2.214375 -0.97078125 1.61625 -1 1 C-0.67 0.67 -0.34 0.34 0 0 Z " fill="#1C0E68" transform="translate(125,32)"/>
<path d="M0 0 C0.61875 0.804375 1.2375 1.60875 1.875 2.4375 C3.74164041 5.03874519 3.74164041 5.03874519 6 6 C5.67 6.99 5.34 7.98 5 9 C3.35 8.67 1.7 8.34 0 8 C-0.79953138 4.71303767 -1.09658936 3.28976808 0 0 Z " fill="#0D065F" transform="translate(28,50)"/>
<path d="M0 0 C-0.99 3.96 -1.98 7.92 -3 12 C-3.33 12 -3.66 12 -4 12 C-4.41713515 10.56853622 -4.8080497 9.12941114 -5.1875 7.6875 C-5.40792969 6.88699219 -5.62835938 6.08648437 -5.85546875 5.26171875 C-6 3 -6 3 -4.73828125 1.20703125 C-3 0 -3 0 0 0 Z " fill="#160964" transform="translate(254,41)"/>
<path d="M0 0 C0.66 1.32 1.32 2.64 2 4 C-2.81578947 8.97631579 -2.81578947 8.97631579 -7.125 9.0625 C-8.548125 9.0315625 -8.548125 9.0315625 -10 9 C-10 8.67 -10 8.34 -10 8 C-8.35 8 -6.7 8 -5 8 C-4.731875 7.360625 -4.46375 6.72125 -4.1875 6.0625 C-3 4 -3 4 0 3 C0 2.01 0 1.02 0 0 Z " fill="#362C77" transform="translate(264,55)"/>
<path d="M0 0 C0.99 0 1.98 0 3 0 C2.67 3.96 2.34 7.92 2 12 C1.34 12 0.68 12 0 12 C0 8.04 0 4.08 0 0 Z " fill="#3A3379" transform="translate(123,52)"/>
<path d="M0 0 C0 2.31 0 4.62 0 7 C-0.99 7 -1.98 7 -3 7 C-3.309375 6.0409375 -3.309375 6.0409375 -3.625 5.0625 C-4.89538209 2.65074923 -4.89538209 2.65074923 -8.125 2.25 C-9.07375 2.1675 -10.0225 2.085 -11 2 C-11 1.67 -11 1.34 -11 1 C-9.35422741 0.83273455 -7.70838013 0.66620388 -6.0625 0.5 C-4.68771484 0.36078125 -4.68771484 0.36078125 -3.28515625 0.21875 C-1 0 -1 0 0 0 Z " fill="#E73C3A" transform="translate(106,30)"/>
<path d="M0 0 C-0.33 1.32 -0.66 2.64 -1 4 C-2.65 4 -4.3 4 -6 4 C-6.33 2.68 -6.66 1.36 -7 0 C-4.3333581 -1.33332095 -2.83319697 -0.67102033 0 0 Z " fill="#E12C2E" transform="translate(240,29)"/>
<path d="M0 0 C1.875 2.3125 1.875 2.3125 3 5 C2.67 5.99 2.34 6.98 2 8 C1.649375 7.38125 1.29875 6.7625 0.9375 6.125 C-1.68887702 3.24445747 -4.26627537 2.84537162 -8 2 C-4.78697711 -0.14201526 -3.73290719 -0.65325876 0 0 Z " fill="#352C74" transform="translate(260,39)"/>
<path d="M0 0 C0.33 0.66 0.66 1.32 1 2 C1.66 2.33 2.32 2.66 3 3 C5 4 5 4 6 6 C6.039992 7.99960012 6.04346799 10.00047242 6 12 C5.34 12 4.68 12 4 12 C4 10.02 4 8.04 4 6 C3.01 5.67 2.02 5.34 1 5 C0.67 3.35 0.34 1.7 0 0 Z " fill="#E73937" transform="translate(68,45)"/>
<path d="M0 0 C1.98 0.495 1.98 0.495 4 1 C3.67 2.65 3.34 4.3 3 6 C1.68 5.67 0.36 5.34 -1 5 C-0.67 3.35 -0.34 1.7 0 0 Z " fill="#837CAD" transform="translate(7,32)"/>
<path d="M0 0 C0.33 0 0.66 0 1 0 C1 1.65 1 3.3 1 5 C2.65 5.33 4.3 5.66 6 6 C5.67 6.66 5.34 7.32 5 8 C2.67843403 8.40729228 0.3431213 8.74438677 -2 9 C-1.34 6.03 -0.68 3.06 0 0 Z " fill="#1B0F66" transform="translate(208,54)"/>
<path d="M0 0 C0.99 0.495 0.99 0.495 2 1 C2 2.32 2 3.64 2 5 C2.66 5 3.32 5 4 5 C4 6.65 4 8.3 4 10 C2.68 9.34 1.36 8.68 0 8 C0 5.36 0 2.72 0 0 Z " fill="#B7B3CF" transform="translate(0,43)"/>
<path d="M0 0 C0.99 0.33 1.98 0.66 3 1 C3.33 1.99 3.66 2.98 4 4 C3.34 4.66 2.68 5.32 2 6 C-0.125 5.625 -0.125 5.625 -2 5 C-1.125 1.125 -1.125 1.125 0 0 Z " fill="#7C76A8" transform="translate(15,57)"/>
<path d="M0 0 C0.66 0 1.32 0 2 0 C2.185625 1.7015625 2.185625 1.7015625 2.375 3.4375 C2.684375 5.2009375 2.684375 5.2009375 3 7 C3.66 7.33 4.32 7.66 5 8 C4.67 8.99 4.34 9.98 4 11 C2 9.4375 2 9.4375 0 7 C-0.25 3.25 -0.25 3.25 0 0 Z " fill="#2D2274" transform="translate(123,34)"/>
<path d="M0 0 C0.66 0 1.32 0 2 0 C2 2.97 2 5.94 2 9 C1.34 9 0.68 9 0 9 C-0.87890625 2.84765625 -0.87890625 2.84765625 -1 1 C-0.67 0.67 -0.34 0.34 0 0 Z " fill="#181165" transform="translate(141,32)"/>
<path d="M0 0 C2.97 0.495 2.97 0.495 6 1 C5.38125 1.28875 4.7625 1.5775 4.125 1.875 C1.86674235 2.93720042 1.86674235 2.93720042 0 5 C-2.125 4.625 -2.125 4.625 -4 4 C-3.34 4 -2.68 4 -2 4 C-1.34 2.68 -0.68 1.36 0 0 Z " fill="#302876" transform="translate(27,58)"/>
<path d="M0 0 C0.66 0 1.32 0 2 0 C0.125 3.875 0.125 3.875 -1 5 C-2.66617115 5.04063832 -4.33388095 5.042721 -6 5 C-6 4.34 -6 3.68 -6 3 C-5.195625 2.690625 -4.39125 2.38125 -3.5625 2.0625 C-1.10919595 1.23664655 -1.10919595 1.23664655 0 0 Z " fill="#2E286F" transform="translate(227,59)"/>
<path d="M0 0 C0.33 0.66 0.66 1.32 1 2 C3.01669827 3.13350534 3.01669827 3.13350534 5 4 C1.625 4.625 1.625 4.625 -2 5 C-2.66 4.34 -3.32 3.68 -4 3 C-2.68 2.01 -1.36 1.02 0 0 Z " fill="#E32627" transform="translate(66,57)"/>
<path d="M0 0 C0.66 0 1.32 0 2 0 C1.67 1.65 1.34 3.3 1 5 C-0.65 5 -2.3 5 -4 5 C-4 4.34 -4 3.68 -4 3 C-3.01 3 -2.02 3 -1 3 C-0.67 2.01 -0.34 1.02 0 0 Z " fill="#1C1766" transform="translate(30,31)"/>
<path d="M0 0 C1.5 1.375 1.5 1.375 3 3 C3 3.66 3 4.32 3 5 C1.02 5 -0.96 5 -3 5 C-3 4.34 -3 3.68 -3 3 C-2.34 3 -1.68 3 -1 3 C-0.67 2.01 -0.34 1.02 0 0 Z " fill="#170A68" transform="translate(182,57)"/>
<path d="M0 0 C1.65 0 3.3 0 5 0 C4.67 1.32 4.34 2.64 4 4 C2.68 3.67 1.36 3.34 0 3 C0 2.01 0 1.02 0 0 Z " fill="#8781AF" transform="translate(12,38)"/>
<path d="M0 0 C0.28875 0.598125 0.5775 1.19625 0.875 1.8125 C2.04742026 4.19327792 2.04742026 4.19327792 4 7 C4 7.99 4 8.98 4 10 C2 9 2 9 0 6 C-0.125 2.8125 -0.125 2.8125 0 0 Z " fill="#1C0E68" transform="translate(153,52)"/>
</svg>
